#!OML:ASF H:\ManfredObstacles\Project 1\Capture day 2\Session 1\male.ASF
:FULLY-SPECIFIED
:DEGREES
329
root -0.02976 8.63642 -0.817679 -117.467 4.7429 189.23
lowerback 24.8064 1.56551 -2.08033
upperback 10.5683 3.46123 2.11711
thorax -2.33674 2.22762 2.54511
lowerneck -25.3858 1.07982 1.2436
upperneck 10.1576 1.09609 0.430337
head 7.17616 0.668627 0.095619
rclavicle -7.95139e-016 4.17448e-015
rhumerus 11.1177 5.93768 -72.7035
rradius 38.5362
rwrist 43.0653
rhand -47.0286 -6.52565
rfingers 7.12502
rthumb -19.7348 -35.5438
lclavicle -7.95139e-016 4.17448e-015
lhumerus 50.5993 4.33219 61.7059
lradius 51.9583
lwrist -37.8329
lhand -34.4982 18.1954
lfingers 7.12502
lthumb -7.66046 48.0367
rfemur -64.0323 -11.5311 9.67938
rtibia 127.079
rfoot -21.8603 -16.0328
rtoes -29.5322
lfemur -57.6089 -4.01511 -19.939
ltibia 110.322
lfoot -3.69172 31.6377
ltoes -19.8918
330
root -0.0670761 8.63732 -0.886767 -117.84 4.69507 189.111
lowerback 24.8743 1.48324 -1.95541
upperback 10.6881 3.42099 2.1641
thorax -2.23227 2.22037 2.53703
lowerneck -25.4301 1.04076 1.01498
upperneck 10.2498 1.11295 0.441634
head 7.21251 0.666799 0.138236
rclavicle 6.75868e-015 -6.5102e-015
rhumerus 10.6487 6.63868 -71.9575
rradius 38.8921
rwrist 42.3594
rhand -45.7941 -5.85062
rfingers 7.12502
rthumb -18.5476 -34.9864
lclavicle 6.75868e-015 -6.5102e-015
lhumerus 50.3111 3.83319 61.6755
lradius 51.5663
lwrist -37.9346
lhand -34.8514 18.5767
lfingers 7.12502
lthumb -8.00138 48.4053
rfemur -65.431 -12.3365 9.65249
rtibia 128.075
rfoot -22.5995 -15.4591
rtoes -29.4534
lfemur -56.5484 -4.56322 -20.2097
ltibia 109.477
lfoot -3.31766 31.8228
ltoes -20.031
331
root -0.101638 8.63622 -0.954579 -118.233 4.64965 188.939
lowerback 24.9507 1.39891 -1.90345
upperback 10.8057 3.3631 2.23618
thorax -2.13745 2.20208 2.602
lowerneck -25.4897 1.01358 0.778442
upperneck 10.3606 1.14864 0.450984
head 7.2574 0.673203 0.184118
rclavicle -2.14687e-014 -3.35449e-014
rhumerus 10.0831 7.42557 -71.1974
rradius 39.4352
rwrist 41.6045
rhand -44.5616 -5.24477
rfingers 7.12502
rthumb -17.3618 -34.4893
lclavicle -2.14687e-014 -3.35449e-014
lhumerus 50.0133 3.36998 61.7677
lradius 51.1643
lwrist -38.0622
lhand -35.222 18.8972
lfingers 7.12502
lthumb -8.35907 48.7118
rfemur -66.8261 -13.1768 9.63554
rtibia 129.058
rfoot -23.3198 -14.9197
rtoes -29.4631
lfemur -55.4826 -5.13468 -20.5204
ltibia 108.648
lfoot -2.96533 31.8163
ltoes -19.6108
332
root -0.13384 8.633 -1.02099 -118.643 4.59352 188.716
lowerback 25.0337 1.31149 -1.89791
upperback 10.9251 3.29339 2.32958
thorax -2.04548 2.17657 2.7196
lowerneck -25.5848 0.994696 0.578361
upperneck 10.4798 1.19008 0.423861
head 7.31099 0.680187 0.21309
rclavicle 0 7.50412e-015
rhumerus 9.41126 8.25573 -70.4315
rradius 40.1797
rwrist 40.77
rhand -43.3055 -4.67424
rfingers 7.12502
rthumb -16.1525 -34.0212
lclavicle 0 7.50412e-015
lhumerus 49.7362 2.93505 62.0224
lradius 50.7465
lwrist -38.2736
lhand -35.6073 19.1685
lfingers 7.12502
lthumb -8.73081 48.968
rfemur -68.216 -14.0747 9.64128
rtibia 130.025
rfoot -24.019 -14.4465
rtoes -29.6085
lfemur -54.4201 -5.73523 -20.8577
ltibia 107.846
lfoot -2.67546 31.7957
ltoes -19.285
333
root -0.163747 8.62765 -1.08633 -119.057 4.51758 188.453
lowerback 25.1068 1.22202 -1.91706
upperback 11.0388 3.21572 2.43854
thorax -1.95568 2.14582 2.87059
lowerneck -25.6685 0.982919 0.412666
upperneck 10.5873 1.23284 0.383718
head 7.35922 0.687887 0.232362
rclavicle 1.59028e-015 3.42407e-014
rhumerus 8.60392 9.06365 -69.7033
rradius 41.125
rwrist 39.8637
rhand -42.1033 -4.11906
rfingers 7.12502
rthumb -14.9947 -33.5562
lclavicle 1.59028e-015 3.42407e-014
lhumerus 49.4823 2.51434 62.4064
lradius 50.3101
lwrist -38.5487
lhand -36.0101 19.4165
lfingers 7.12502
lthumb -9.11954 49.1993
rfemur -69.6086 -14.9971 9.68619
rtibia 130.969
rfoot -24.7015 -14.0093
rtoes -29.8192
lfemur -53.3731 -6.35791 -21.2055
ltibia 107.072
lfoot -2.45566 31.7154
ltoes -18.9025
334
root -0.191234 8.62036 -1.15114 -119.48 4.41801 188.156
lowerback 25.168 1.12054 -1.92419
upperback 11.1467 3.12416 2.53785
thorax -1.8643 2.10859 3.00832
lowerneck -25.746 0.974963 0.290314
upperneck 10.7084 1.26405 0.35719
head 7.41125 0.69319 0.247842
rclavicle -1.19271e-015 8.72168e-015
rhumerus 7.64278 9.76763 -69.0831
rradius 42.2698
rwrist 38.9057
rhand -40.9502 -3.57796
rfingers 7.12502
rthumb -13.8837 -33.0945
lclavicle -1.19271e-015 8.72168e-015
lhumerus 49.2492 2.10135 62.8746
lradius 49.8616
lwrist -38.9051
lhand -36.4252 19.658
lfingers 7.12502
lthumb -9.52005 49.423
rfemur -70.982 -15.9204 9.77227
rtibia 131.883
rfoot -25.3624 -13.7736
rtoes -30.2219
lfemur -52.3263 -6.99554 -21.5555
ltibia 106.325
lfoot -2.26987 31.6643
ltoes -18.6598
335
root -0.216421 8.61132 -1.21554 -119.908 4.29345 187.833
lowerback 25.2122 1.01875 -1.93237
upperback 11.2481 3.03176 2.6463
thorax -1.77181 2.07041 3.15728
lowerneck -25.8044 0.967289 0.225642
upperneck 10.8385 1.2832 0.28694
head 7.46413 0.690324 0.23779
rclavicle -1.78906e-014 -2.59911e-014
rhumerus 6.52754 10.3121 -68.5635
rradius 43.5783
rwrist 37.9661
rhand -39.9896 -3.13601
rfingers 7.12502
rthumb -12.9577 -32.7137
lclavicle -1.78906e-014 -2.59911e-014
lhumerus 49.0168 1.68836 63.4604
lradius 49.4112
lwrist -39.3271
lhand -36.8413 19.8831
lfingers 7.12502
lthumb -9.92154 49.6293
rfemur -72.3396 -16.8256 9.90736
rtibia 132.769
rfoot -25.9749 -13.4591
rtoes -30.4838
lfemur -51.2841 -7.647 -21.9018
ltibia 105.604
lfoot -2.12551 31.7056
ltoes -18.7023
336
root -0.238865 8.60062 -1.27986 -120.337 4.15263 187.487
lowerback 25.2127 0.896107 -1.87182
upperback 11.3483 2.92414 2.6976
thorax -1.6537 2.02783 3.21029
lowerneck -25.8183 0.956645 0.224122
upperneck 10.9584 1.26973 0.260331
head 7.5069 0.679398 0.22771
rclavicle 1.59028e-014 1.85864e-014
rhumerus 5.25714 10.5733 -68.2697
rradius 45.0151
rwrist 37.1542
rhand -39.3174 -2.84108
rfingers 7.12502
rthumb -12.3097 -32.4587
lclavicle 1.59028e-014 1.85864e-014
lhumerus 48.8056 1.24141 64.0153
lradius 48.9578
lwrist -39.7802
lhand -37.2389 20.0894
lfingers 7.12502
lthumb -10.3051 49.8169
rfemur -73.6682 -17.7049 10.0744
rtibia 133.628
rfoot -26.5496 -13.1219
rtoes -30.676
lfemur -50.2421 -8.30324 -22.2469
ltibia 104.906
lfoot -1.94006 31.8905
ltoes -19.0299
337
root -0.258164 8.58875 -1.34459 -120.773 4.00303 187.12
lowerback 25.1919 0.763205 -1.82169
upperback 11.4529 2.8013 2.74397
thorax -1.51931 1.97751 3.26857
lowerneck -25.8123 0.946697 0.233912
upperneck 11.07 1.25498 0.224292
head 7.54399 0.667354 0.212315
rclavicle -7.15625e-015 6.68413e-015
rhumerus 3.91604 10.5839 -68.1229
rradius 46.5106
rwrist 36.5184
rhand -39.0969 -2.7063
rfingers 7.12502
rthumb -12.097 -32.3366
lclavicle -7.15625e-015 6.68413e-015
lhumerus 48.5775 0.827501 64.5973
lradius 48.5138
lwrist -40.2232
lhand -37.6149 20.2497
lfingers 7.12502
lthumb -10.6678 49.9589
rfemur -74.9481 -18.547 10.2561
rtibia 134.463
rfoot -27.0977 -12.8287
rtoes -30.8737
lfemur -49.189 -8.95956 -22.5948
ltibia 104.221
lfoot -1.75798 32.1224
ltoes -19.408
338
root -0.274028 8.57524 -1.40889 -121.204 3.8511 186.733
lowerback 25.1297 0.644532 -1.78156
upperback 11.5654 2.69591 2.78988
thorax -1.35776 1.93542 3.32871
lowerneck -25.7933 0.910238 0.244155
upperneck 11.166 1.20495 0.187659
head 7.5738 0.638632 0.191737
rclavicle -1.35174e-014 -6.41081e-015
rhumerus 2.51707 10.2603 -68.0922
rradius 48.0621
rwrist 36.0486
rhand -39.3089 -2.68357
rfingers 7.12502
rthumb -12.3015 -32.3017
lclavicle -1.35174e-014 -6.41081e-015
lhumerus 48.3671 0.382857 65.2021
lradius 48.07
lwrist -40.6401
lhand -37.9791 20.3641
lfingers 7.12502
lthumb -11.0191 50.0548
rfemur -76.2133 -19.3892 10.4559
rtibia 135.293
rfoot -27.6194 -12.5827
rtoes -31.0812
lfemur -48.1432 -9.6109 -22.9469
ltibia 103.55
lfoot -1.51041 32.4415
ltoes -20.009
339
root -0.285988 8.56059 -1.47347 -121.633 3.70457 186.327
lowerback 25.0304 0.539461 -1.76313
upperback 11.6969 2.60689 2.83085
thorax -1.1588 1.90121 3.39304
lowerneck -25.7728 0.845634 0.237751
upperneck 11.2286 1.1213 0.166602
head 7.59196 0.595278 0.174383
rclavicle 2.0276e-014 4.00054e-015
rhumerus 1.12574 9.60441 -68.1568
rradius 49.6688
rwrist 35.7071
rhand -39.9347 -2.67349
rfingers 7.12502
rthumb -12.9048 -32.2545
lclavicle 2.0276e-014 4.00054e-015
lhumerus 48.1928 -0.0847696 65.7949
lradius 47.6226
lwrist -41.005
lhand -38.3331 20.433
lfingers 7.12502
lthumb -11.3606 50.1052
rfemur -77.4261 -20.2152 10.6596
rtibia 136.123
rfoot -28.118 -12.4182
rtoes -31.2886
lfemur -47.0787 -10.2583 -23.3078
ltibia 102.899
lfoot -1.29422 32.6209
ltoes -20.0318
